<svg width="26" height="31" viewBox="0 0 26 31" fill="none" xmlns="http://www.w3.org/2000/svg">
<path d="M21.2469 16.2119C21.2114 12.3606 24.4813 10.4869 24.6308 10.3996C22.7789 7.76717 19.9086 7.40749 18.8999 7.37881C16.4892 7.13146 14.1508 8.78527 12.9227 8.78527C11.6702 8.78527 9.77909 7.40271 7.74094 7.44334C5.11818 7.48277 2.66455 8.96331 1.31885 11.2624C-1.45833 15.9502 0.612912 22.8391 3.27367 26.6282C4.60466 28.484 6.15993 30.556 8.19563 30.4832C10.1872 30.4031 10.9311 29.2452 13.3345 29.2452C15.7159 29.2452 16.4144 30.4832 18.4906 30.4366C20.628 30.4031 21.9737 28.5724 23.2581 26.6999C24.7962 24.5729 25.4139 22.4782 25.4385 22.3706C25.3882 22.3539 21.2874 20.828 21.2469 16.2119Z" fill="white"/>
<path d="M17.325 4.88615C18.3962 3.58007 19.1291 1.80318 18.9257 0C17.3753 0.0669172 15.4364 1.04558 14.3199 2.32298C13.3321 3.44862 12.4497 5.29363 12.6776 7.02869C14.4192 7.15536 16.2073 6.17191 17.325 4.88615Z" fill="white"/>
</svg>
