<svg width="15" height="20" viewBox="0 0 15 20" fill="none" xmlns="http://www.w3.org/2000/svg">
<path d="M6.81107 13.1975L3.62689 9.9981L1.32953 12.286C-0.437456 14.0453 -0.444111 16.9035 1.31527 18.6705C3.07465 20.4375 5.9328 20.4441 7.69979 18.6847L13.1975 13.2117C11.4305 14.9711 8.57235 14.9645 6.81297 13.1975L6.81107 13.1975Z" fill="white"/>
<path d="M1.33808 7.69979L3.62594 9.99715L6.82532 6.81297C8.59231 5.05359 11.4505 5.06024 13.2098 6.82723L7.73685 1.32952C5.97748 -0.437458 3.11932 -0.444109 1.35234 1.31527C-0.414644 3.07465 -0.4213 5.9328 1.33808 7.69979Z" fill="#A9A9A9"/>
<path d="M6.82532 6.81297L3.62594 9.99715L6.81012 13.1965C8.5695 14.9635 11.4277 14.9702 13.1946 13.2108C14.9616 11.4514 14.9683 8.59326 13.2089 6.82627C11.4495 5.05929 8.59136 5.05264 6.82437 6.81202L6.82532 6.81297Z" fill="#BDBDBD"/>
</svg>
