<svg width="208" height="18" viewBox="0 0 208 18" fill="none" xmlns="http://www.w3.org/2000/svg">
<path d="M0 17.12H16V1.12H0V17.12Z" fill="#3A4560"/>
<path d="M28.4608 14.1632C27.7627 14.1632 27.1733 14.0363 26.6928 13.7824C26.2213 13.5195 25.8405 13.1704 25.5504 12.7352C25.2693 12.3 25.0608 11.8104 24.9248 11.2664C24.7979 10.7224 24.7344 10.1648 24.7344 9.5936C24.7344 8.54187 24.8795 7.6216 25.1696 6.8328C25.4597 6.044 25.8813 5.42747 26.4344 4.9832C26.9875 4.53893 27.6539 4.3168 28.4336 4.3168C29.0592 4.3168 29.5896 4.4392 30.0248 4.684C30.4691 4.91973 30.8136 5.23707 31.0584 5.636C31.3123 6.03493 31.4664 6.47013 31.5208 6.9416H30.256C30.1744 6.47013 29.9704 6.10747 29.644 5.8536C29.3267 5.59973 28.9187 5.4728 28.42 5.4728C27.9757 5.4728 27.5768 5.61333 27.2232 5.8944C26.8696 6.1664 26.5885 6.58347 26.38 7.1456C26.1805 7.70773 26.0672 8.41947 26.04 9.2808C26.04 9.28987 26.04 9.30347 26.04 9.3216C26.04 9.33973 26.04 9.35787 26.04 9.376C26.176 9.104 26.3709 8.85467 26.6248 8.628C26.8787 8.40133 27.1779 8.22453 27.5224 8.0976C27.876 7.9616 28.2568 7.8936 28.6648 7.8936C29.1997 7.8936 29.6984 8.02053 30.1608 8.2744C30.6323 8.5192 31.0085 8.8728 31.2896 9.3352C31.5797 9.7976 31.7248 10.3371 31.7248 10.9536C31.7248 11.5067 31.5888 12.028 31.3168 12.5176C31.0539 13.0072 30.6776 13.4061 30.188 13.7144C29.6984 14.0136 29.1227 14.1632 28.4608 14.1632ZM28.3656 12.98C28.7555 12.98 29.1 12.8984 29.3992 12.7352C29.7075 12.5629 29.9477 12.3272 30.12 12.028C30.2923 11.7288 30.3784 11.3888 30.3784 11.008C30.3784 10.6181 30.2923 10.2781 30.12 9.988C29.9477 9.6888 29.7075 9.4576 29.3992 9.2944C29.1 9.1312 28.7555 9.0496 28.3656 9.0496C27.9848 9.0496 27.6357 9.14027 27.3184 9.3216C27.0101 9.49387 26.7653 9.7296 26.584 10.0288C26.4117 10.3189 26.3256 10.6499 26.3256 11.0216C26.3256 11.4024 26.4117 11.7424 26.584 12.0416C26.7653 12.3317 27.0101 12.5629 27.3184 12.7352C27.6357 12.8984 27.9848 12.98 28.3656 12.98ZM33.5305 14.068C33.2767 14.068 33.0636 13.9864 32.8913 13.8232C32.7281 13.6509 32.6465 13.4469 32.6465 13.2112C32.6465 12.9664 32.7281 12.7624 32.8913 12.5992C33.0636 12.4269 33.2767 12.3408 33.5305 12.3408C33.7935 12.3408 34.0065 12.4269 34.1697 12.5992C34.342 12.7624 34.4281 12.9664 34.4281 13.2112C34.4281 13.4469 34.342 13.6509 34.1697 13.8232C34.0065 13.9864 33.7935 14.068 33.5305 14.068ZM39.2537 14.1632C38.5918 14.1632 38.0206 14.0453 37.5401 13.8096C37.0595 13.5648 36.6787 13.2384 36.3977 12.8304C36.1166 12.4224 35.9443 11.9555 35.8809 11.4296H37.2137C37.3043 11.892 37.531 12.2728 37.8937 12.572C38.2563 12.8621 38.7142 13.0072 39.2673 13.0072C39.6843 13.0072 40.0379 12.912 40.3281 12.7216C40.6273 12.5221 40.8585 12.2547 41.0217 11.9192C41.1849 11.5837 41.2665 11.2075 41.2665 10.7904C41.2665 10.3552 41.1849 9.97893 41.0217 9.6616C40.8585 9.3352 40.6273 9.08133 40.3281 8.9C40.0379 8.71867 39.6979 8.628 39.3081 8.628C38.8366 8.628 38.4331 8.7368 38.0977 8.9544C37.7622 9.16293 37.5129 9.42587 37.3497 9.7432H36.0305L36.8193 4.48H41.9465V5.6632H37.8529L37.3633 8.3424C37.5809 8.0976 37.871 7.89813 38.2337 7.744C38.6054 7.5808 39.027 7.4992 39.4985 7.4992C39.979 7.4992 40.4097 7.58533 40.7905 7.7576C41.1713 7.92987 41.4931 8.1656 41.7561 8.4648C42.0281 8.764 42.2321 9.11307 42.3681 9.512C42.5131 9.90187 42.5857 10.3235 42.5857 10.7768C42.5857 11.2483 42.5086 11.688 42.3545 12.096C42.2003 12.504 41.9782 12.8667 41.6881 13.184C41.3979 13.4923 41.0489 13.7325 40.6409 13.9048C40.2329 14.0771 39.7705 14.1632 39.2537 14.1632ZM47.7822 14V4.208H49.1422V14H47.7822ZM53.2671 14.1632C52.705 14.1632 52.238 14.068 51.8663 13.8776C51.5036 13.6872 51.2316 13.4333 51.0503 13.116C50.869 12.7896 50.7783 12.436 50.7783 12.0552C50.7783 11.6019 50.8916 11.2165 51.1183 10.8992C51.354 10.5819 51.6895 10.3371 52.1247 10.1648C52.5599 9.99253 53.0858 9.9064 53.7023 9.9064H55.4703C55.4703 9.4984 55.4114 9.16293 55.2935 8.9C55.1847 8.628 55.0124 8.42853 54.7767 8.3016C54.541 8.1656 54.2463 8.0976 53.8927 8.0976C53.4938 8.0976 53.1447 8.19733 52.8455 8.3968C52.5554 8.5872 52.3786 8.8728 52.3151 9.2536H50.9551C51.0095 8.764 51.1727 8.35147 51.4447 8.016C51.7167 7.68053 52.0703 7.42213 52.5055 7.2408C52.9407 7.05947 53.4031 6.9688 53.8927 6.9688C54.5364 6.9688 55.0759 7.08213 55.5111 7.3088C55.9463 7.53547 56.2727 7.8528 56.4903 8.2608C56.717 8.6688 56.8303 9.1584 56.8303 9.7296V14H55.6471L55.5383 12.844C55.4386 13.0253 55.3162 13.1976 55.1711 13.3608C55.0351 13.524 54.8764 13.6645 54.6951 13.7824C54.5138 13.9003 54.3007 13.9909 54.0559 14.0544C53.8202 14.1269 53.5572 14.1632 53.2671 14.1632ZM53.5255 13.0616C53.8156 13.0616 54.0786 13.0027 54.3143 12.8848C54.55 12.7669 54.7495 12.6083 54.9127 12.4088C55.085 12.2003 55.2119 11.9691 55.2935 11.7152C55.3842 11.4523 55.434 11.1803 55.4431 10.8992V10.8584H53.8247C53.4439 10.8584 53.1311 10.9083 52.8863 11.008C52.6415 11.0987 52.4647 11.2301 52.3559 11.4024C52.2562 11.5656 52.2063 11.756 52.2063 11.9736C52.2063 12.1912 52.2562 12.3816 52.3559 12.5448C52.4556 12.708 52.6052 12.8349 52.8047 12.9256C53.0042 13.0163 53.2444 13.0616 53.5255 13.0616ZM62.8907 14L59.7355 10.2464L62.6051 7.132H64.2507L60.8371 10.7632V9.7432L64.6043 14H62.8907ZM58.5931 14V4.208H59.9531V14H58.5931ZM65.7782 14V4.208H67.1382V8.2336C67.3649 7.84373 67.6777 7.53547 68.0766 7.3088C68.4756 7.08213 68.9198 6.9688 69.4094 6.9688C69.9534 6.9688 70.4204 7.0776 70.8102 7.2952C71.2001 7.5128 71.4993 7.84373 71.7078 8.288C71.9164 8.7232 72.0206 9.27173 72.0206 9.9336V14H70.6742V10.0696C70.6742 9.42587 70.5337 8.9408 70.2526 8.6144C69.9806 8.288 69.5817 8.1248 69.0558 8.1248C68.6932 8.1248 68.3668 8.21093 68.0766 8.3832C67.7865 8.55547 67.5553 8.8048 67.383 9.1312C67.2198 9.4576 67.1382 9.86107 67.1382 10.3416V14H65.7782ZM76.0444 13.0616V7.0504H77.2412V13.0616H76.0444ZM73.474 10.6272V9.4848H79.8252V10.6272H73.474ZM84.8767 14V7.132H86.0871L86.1823 8.084C86.3999 7.7304 86.69 7.4584 87.0527 7.268C87.4153 7.06853 87.8233 6.9688 88.2767 6.9688C88.6212 6.9688 88.934 7.01413 89.2151 7.1048C89.4961 7.19547 89.7455 7.336 89.9631 7.5264C90.1807 7.7168 90.3529 7.95253 90.4799 8.2336C90.7247 7.83467 91.0511 7.5264 91.4591 7.3088C91.8761 7.08213 92.3159 6.9688 92.7783 6.9688C93.3313 6.9688 93.8028 7.0776 94.1927 7.2952C94.5916 7.5128 94.8953 7.8392 95.1039 8.2744C95.3215 8.7096 95.4303 9.25813 95.4303 9.92V14H94.0839V10.056C94.0839 9.42133 93.9524 8.9408 93.6895 8.6144C93.4265 8.288 93.0503 8.1248 92.5607 8.1248C92.2343 8.1248 91.9396 8.21093 91.6767 8.3832C91.4137 8.55547 91.2052 8.8048 91.0511 9.1312C90.906 9.44853 90.8335 9.84293 90.8335 10.3144V14H89.4735V10.056C89.4735 9.42133 89.342 8.9408 89.0791 8.6144C88.8161 8.288 88.4399 8.1248 87.9503 8.1248C87.6239 8.1248 87.3292 8.21093 87.0663 8.3832C86.8124 8.55547 86.6084 8.8048 86.4543 9.1312C86.3092 9.44853 86.2367 9.84293 86.2367 10.3144V14H84.8767ZM100.289 14.1632C99.6361 14.1632 99.0558 14.0136 98.5481 13.7144C98.0403 13.4152 97.6414 12.9981 97.3513 12.4632C97.0702 11.9283 96.9297 11.3027 96.9297 10.5864C96.9297 9.86107 97.0702 9.23093 97.3513 8.696C97.6414 8.152 98.0403 7.7304 98.5481 7.4312C99.0558 7.12293 99.6451 6.9688 100.316 6.9688C100.987 6.9688 101.563 7.1184 102.043 7.4176C102.524 7.7168 102.891 8.11573 103.145 8.6144C103.408 9.104 103.539 9.648 103.539 10.2464C103.539 10.3371 103.539 10.4368 103.539 10.5456C103.539 10.6453 103.535 10.7587 103.526 10.8856H97.9361V9.92H102.193C102.166 9.3488 101.975 8.90453 101.622 8.5872C101.268 8.2608 100.824 8.0976 100.289 8.0976C99.9262 8.0976 99.5907 8.1792 99.2825 8.3424C98.9742 8.5056 98.7249 8.7504 98.5345 9.0768C98.3531 9.4032 98.2625 9.8112 98.2625 10.3008V10.6952C98.2625 11.2029 98.3531 11.6291 98.5345 11.9736C98.7249 12.3181 98.9742 12.5811 99.2825 12.7624C99.5907 12.9437 99.9262 13.0344 100.289 13.0344C100.724 13.0344 101.082 12.9392 101.363 12.7488C101.644 12.5584 101.853 12.3 101.989 11.9736H103.349C103.231 12.3907 103.032 12.7669 102.75 13.1024C102.469 13.4288 102.12 13.6872 101.703 13.8776C101.295 14.068 100.824 14.1632 100.289 14.1632ZM108.097 14.1632C107.453 14.1632 106.882 14.0091 106.383 13.7008C105.884 13.3835 105.495 12.9528 105.213 12.4088C104.941 11.8648 104.805 11.2483 104.805 10.5592C104.805 9.86107 104.941 9.24453 105.213 8.7096C105.495 8.1656 105.884 7.73947 106.383 7.4312C106.891 7.12293 107.471 6.9688 108.124 6.9688C108.659 6.9688 109.13 7.07307 109.538 7.2816C109.946 7.49013 110.264 7.78933 110.49 8.1792V4.208H111.85V14H110.626L110.49 12.9392C110.345 13.1477 110.164 13.3472 109.946 13.5376C109.729 13.7189 109.466 13.8685 109.157 13.9864C108.858 14.1043 108.505 14.1632 108.097 14.1632ZM108.328 12.98C108.754 12.98 109.126 12.8803 109.443 12.6808C109.769 12.4813 110.023 12.2003 110.205 11.8376C110.386 11.4749 110.477 11.0488 110.477 10.5592C110.477 10.0787 110.386 9.65707 110.205 9.2944C110.023 8.93173 109.769 8.65067 109.443 8.4512C109.126 8.25173 108.754 8.152 108.328 8.152C107.92 8.152 107.553 8.25173 107.226 8.4512C106.9 8.65067 106.646 8.93173 106.465 9.2944C106.283 9.65707 106.193 10.0787 106.193 10.5592C106.193 11.0397 106.283 11.4659 106.465 11.8376C106.646 12.2003 106.9 12.4813 107.226 12.6808C107.553 12.8803 107.92 12.98 108.328 12.98ZM113.805 14V7.132H115.165V14H113.805ZM114.485 5.84C114.223 5.84 114.005 5.7584 113.833 5.5952C113.669 5.42293 113.588 5.2144 113.588 4.9696C113.588 4.71573 113.669 4.51173 113.833 4.3576C114.005 4.20347 114.223 4.1264 114.485 4.1264C114.739 4.1264 114.952 4.20347 115.125 4.3576C115.297 4.51173 115.383 4.71573 115.383 4.9696C115.383 5.2144 115.297 5.42293 115.125 5.5952C114.952 5.7584 114.739 5.84 114.485 5.84ZM120.265 14.1632C119.613 14.1632 119.023 14.0136 118.497 13.7144C117.981 13.4061 117.573 12.9845 117.273 12.4496C116.983 11.9056 116.838 11.28 116.838 10.5728C116.838 9.85653 116.983 9.23093 117.273 8.696C117.573 8.152 117.981 7.7304 118.497 7.4312C119.023 7.12293 119.617 6.9688 120.279 6.9688C121.104 6.9688 121.798 7.1864 122.36 7.6216C122.922 8.0568 123.28 8.6416 123.434 9.376H122.02C121.929 8.98613 121.721 8.6824 121.394 8.4648C121.077 8.23813 120.696 8.1248 120.252 8.1248C119.889 8.1248 119.554 8.22 119.245 8.4104C118.937 8.59173 118.688 8.86373 118.497 9.2264C118.316 9.58907 118.225 10.0333 118.225 10.5592C118.225 10.9581 118.28 11.3117 118.389 11.62C118.497 11.9192 118.643 12.1731 118.824 12.3816C119.005 12.5901 119.218 12.7488 119.463 12.8576C119.717 12.9573 119.98 13.0072 120.252 13.0072C120.551 13.0072 120.819 12.9573 121.054 12.8576C121.299 12.7579 121.503 12.6173 121.666 12.436C121.839 12.2456 121.956 12.0144 122.02 11.7424H123.434C123.28 12.4677 122.922 13.0525 122.36 13.4968C121.798 13.9411 121.1 14.1632 120.265 14.1632ZM125.134 14V7.132H126.494V14H125.134ZM125.814 5.84C125.551 5.84 125.334 5.7584 125.162 5.5952C124.998 5.42293 124.917 5.2144 124.917 4.9696C124.917 4.71573 124.998 4.51173 125.162 4.3576C125.334 4.20347 125.551 4.1264 125.814 4.1264C126.068 4.1264 126.281 4.20347 126.454 4.3576C126.626 4.51173 126.712 4.71573 126.712 4.9696C126.712 5.2144 126.626 5.42293 126.454 5.5952C126.281 5.7584 126.068 5.84 125.814 5.84ZM128.439 14V7.132H129.65L129.731 8.288C129.949 7.88 130.257 7.55813 130.656 7.3224C131.055 7.08667 131.513 6.9688 132.03 6.9688C132.574 6.9688 133.041 7.0776 133.43 7.2952C133.82 7.50373 134.119 7.83013 134.328 8.2744C134.546 8.7096 134.654 9.2536 134.654 9.9064V14H133.308V10.0424C133.308 9.4168 133.167 8.9408 132.886 8.6144C132.605 8.288 132.197 8.1248 131.662 8.1248C131.309 8.1248 130.991 8.21093 130.71 8.3832C130.429 8.5464 130.207 8.7912 130.044 9.1176C129.881 9.43493 129.799 9.82933 129.799 10.3008V14H128.439ZM139.508 14.1632C138.856 14.1632 138.275 14.0136 137.768 13.7144C137.26 13.4152 136.861 12.9981 136.571 12.4632C136.29 11.9283 136.149 11.3027 136.149 10.5864C136.149 9.86107 136.29 9.23093 136.571 8.696C136.861 8.152 137.26 7.7304 137.768 7.4312C138.275 7.12293 138.865 6.9688 139.536 6.9688C140.207 6.9688 140.782 7.1184 141.263 7.4176C141.743 7.7168 142.111 8.11573 142.364 8.6144C142.627 9.104 142.759 9.648 142.759 10.2464C142.759 10.3371 142.759 10.4368 142.759 10.5456C142.759 10.6453 142.754 10.7587 142.745 10.8856H137.156V9.92H141.412C141.385 9.3488 141.195 8.90453 140.841 8.5872C140.488 8.2608 140.043 8.0976 139.508 8.0976C139.146 8.0976 138.81 8.1792 138.502 8.3424C138.194 8.5056 137.944 8.7504 137.754 9.0768C137.573 9.4032 137.482 9.8112 137.482 10.3008V10.6952C137.482 11.2029 137.573 11.6291 137.754 11.9736C137.944 12.3181 138.194 12.5811 138.502 12.7624C138.81 12.9437 139.146 13.0344 139.508 13.0344C139.944 13.0344 140.302 12.9392 140.583 12.7488C140.864 12.5584 141.072 12.3 141.208 11.9736H142.568C142.451 12.3907 142.251 12.7669 141.97 13.1024C141.689 13.4288 141.34 13.6872 140.923 13.8776C140.515 14.068 140.043 14.1632 139.508 14.1632ZM150.809 14.1632C150.165 14.1632 149.594 14.0091 149.096 13.7008C148.597 13.3835 148.207 12.9528 147.926 12.4088C147.654 11.8648 147.518 11.2483 147.518 10.5592C147.518 9.86107 147.654 9.24453 147.926 8.7096C148.207 8.1656 148.597 7.73947 149.096 7.4312C149.603 7.12293 150.184 6.9688 150.836 6.9688C151.371 6.9688 151.843 7.07307 152.251 7.2816C152.659 7.49013 152.976 7.78933 153.203 8.1792V4.208H154.563V14H153.339L153.203 12.9392C153.058 13.1477 152.876 13.3472 152.659 13.5376C152.441 13.7189 152.178 13.8685 151.87 13.9864C151.571 14.1043 151.217 14.1632 150.809 14.1632ZM151.04 12.98C151.466 12.98 151.838 12.8803 152.156 12.6808C152.482 12.4813 152.736 12.2003 152.917 11.8376C153.098 11.4749 153.189 11.0488 153.189 10.5592C153.189 10.0787 153.098 9.65707 152.917 9.2944C152.736 8.93173 152.482 8.65067 152.156 8.4512C151.838 8.25173 151.466 8.152 151.04 8.152C150.632 8.152 150.265 8.25173 149.939 8.4512C149.612 8.65067 149.358 8.93173 149.177 9.2944C148.996 9.65707 148.905 10.0787 148.905 10.5592C148.905 11.0397 148.996 11.4659 149.177 11.8376C149.358 12.2003 149.612 12.4813 149.939 12.6808C150.265 12.8803 150.632 12.98 151.04 12.98ZM158.68 14.1632C158.118 14.1632 157.651 14.068 157.28 13.8776C156.917 13.6872 156.645 13.4333 156.464 13.116C156.282 12.7896 156.192 12.436 156.192 12.0552C156.192 11.6019 156.305 11.2165 156.532 10.8992C156.767 10.5819 157.103 10.3371 157.538 10.1648C157.973 9.99253 158.499 9.9064 159.116 9.9064H160.884C160.884 9.4984 160.825 9.16293 160.707 8.9C160.598 8.628 160.426 8.42853 160.19 8.3016C159.954 8.1656 159.66 8.0976 159.306 8.0976C158.907 8.0976 158.558 8.19733 158.259 8.3968C157.969 8.5872 157.792 8.8728 157.728 9.2536H156.368C156.423 8.764 156.586 8.35147 156.858 8.016C157.13 7.68053 157.484 7.42213 157.919 7.2408C158.354 7.05947 158.816 6.9688 159.306 6.9688C159.95 6.9688 160.489 7.08213 160.924 7.3088C161.36 7.53547 161.686 7.8528 161.904 8.2608C162.13 8.6688 162.244 9.1584 162.244 9.7296V14H161.06L160.952 12.844C160.852 13.0253 160.729 13.1976 160.584 13.3608C160.448 13.524 160.29 13.6645 160.108 13.7824C159.927 13.9003 159.714 13.9909 159.469 14.0544C159.233 14.1269 158.971 14.1632 158.68 14.1632ZM158.939 13.0616C159.229 13.0616 159.492 13.0027 159.728 12.8848C159.963 12.7669 160.163 12.6083 160.326 12.4088C160.498 12.2003 160.625 11.9691 160.707 11.7152C160.797 11.4523 160.847 11.1803 160.856 10.8992V10.8584H159.238C158.857 10.8584 158.544 10.9083 158.3 11.008C158.055 11.0987 157.878 11.2301 157.769 11.4024C157.669 11.5656 157.62 11.756 157.62 11.9736C157.62 12.1912 157.669 12.3816 157.769 12.5448C157.869 12.708 158.019 12.8349 158.218 12.9256C158.417 13.0163 158.658 13.0616 158.939 13.0616ZM166.675 14C166.249 14 165.878 13.932 165.56 13.796C165.243 13.66 164.998 13.4333 164.826 13.116C164.654 12.7987 164.567 12.368 164.567 11.824V8.2744H163.371V7.132H164.567L164.731 5.3912H165.927V7.132H167.859V8.2744H165.927V11.8376C165.927 12.2275 166.005 12.4949 166.159 12.64C166.322 12.776 166.607 12.844 167.015 12.844H167.804V14H166.675ZM171.643 14.1632C171.081 14.1632 170.614 14.068 170.242 13.8776C169.879 13.6872 169.607 13.4333 169.426 13.116C169.245 12.7896 169.154 12.436 169.154 12.0552C169.154 11.6019 169.267 11.2165 169.494 10.8992C169.73 10.5819 170.065 10.3371 170.5 10.1648C170.936 9.99253 171.462 9.9064 172.078 9.9064H173.846C173.846 9.4984 173.787 9.16293 173.669 8.9C173.56 8.628 173.388 8.42853 173.152 8.3016C172.917 8.1656 172.622 8.0976 172.268 8.0976C171.87 8.0976 171.52 8.19733 171.221 8.3968C170.931 8.5872 170.754 8.8728 170.691 9.2536H169.331C169.385 8.764 169.548 8.35147 169.82 8.016C170.092 7.68053 170.446 7.42213 170.881 7.2408C171.316 7.05947 171.779 6.9688 172.268 6.9688C172.912 6.9688 173.452 7.08213 173.887 7.3088C174.322 7.53547 174.648 7.8528 174.866 8.2608C175.093 8.6688 175.206 9.1584 175.206 9.7296V14H174.023L173.914 12.844C173.814 13.0253 173.692 13.1976 173.547 13.3608C173.411 13.524 173.252 13.6645 173.071 13.7824C172.89 13.9003 172.676 13.9909 172.432 14.0544C172.196 14.1269 171.933 14.1632 171.643 14.1632ZM171.901 13.0616C172.191 13.0616 172.454 13.0027 172.69 12.8848C172.926 12.7669 173.125 12.6083 173.288 12.4088C173.461 12.2003 173.588 11.9691 173.669 11.7152C173.76 11.4523 173.81 11.1803 173.819 10.8992V10.8584H172.2C171.82 10.8584 171.507 10.9083 171.262 11.008C171.017 11.0987 170.84 11.2301 170.732 11.4024C170.632 11.5656 170.582 11.756 170.582 11.9736C170.582 12.1912 170.632 12.3816 170.732 12.5448C170.831 12.708 170.981 12.8349 171.18 12.9256C171.38 13.0163 171.62 13.0616 171.901 13.0616ZM180.695 14.1632C180.314 14.1632 179.974 14.1088 179.675 14C179.376 13.9003 179.113 13.7597 178.886 13.5784C178.66 13.388 178.469 13.1795 178.315 12.9528L178.179 14H176.969V4.208H178.329V8.1928C178.546 7.84827 178.85 7.55813 179.24 7.3224C179.639 7.08667 180.124 6.9688 180.695 6.9688C181.348 6.9688 181.919 7.12293 182.409 7.4312C182.908 7.73947 183.297 8.1656 183.578 8.7096C183.86 9.2536 184 9.87013 184 10.5592C184 11.2573 183.86 11.8784 183.578 12.4224C183.297 12.9573 182.908 13.3835 182.409 13.7008C181.919 14.0091 181.348 14.1632 180.695 14.1632ZM180.478 12.98C180.895 12.98 181.262 12.8803 181.579 12.6808C181.906 12.4813 182.16 12.2003 182.341 11.8376C182.522 11.4749 182.613 11.0488 182.613 10.5592C182.613 10.0787 182.522 9.65707 182.341 9.2944C182.16 8.93173 181.906 8.65067 181.579 8.4512C181.262 8.25173 180.895 8.152 180.478 8.152C180.052 8.152 179.675 8.25173 179.349 8.4512C179.032 8.65067 178.782 8.93173 178.601 9.2944C178.42 9.65707 178.329 10.0787 178.329 10.5592C178.329 11.0488 178.42 11.4749 178.601 11.8376C178.782 12.2003 179.032 12.4813 179.349 12.6808C179.675 12.8803 180.052 12.98 180.478 12.98ZM187.859 14.1632C187.297 14.1632 186.83 14.068 186.458 13.8776C186.096 13.6872 185.824 13.4333 185.642 13.116C185.461 12.7896 185.37 12.436 185.37 12.0552C185.37 11.6019 185.484 11.2165 185.71 10.8992C185.946 10.5819 186.282 10.3371 186.717 10.1648C187.152 9.99253 187.678 9.9064 188.294 9.9064H190.062C190.062 9.4984 190.004 9.16293 189.886 8.9C189.777 8.628 189.605 8.42853 189.369 8.3016C189.133 8.1656 188.838 8.0976 188.485 8.0976C188.086 8.0976 187.737 8.19733 187.438 8.3968C187.148 8.5872 186.971 8.8728 186.907 9.2536H185.547C185.602 8.764 185.765 8.35147 186.037 8.016C186.309 7.68053 186.662 7.42213 187.098 7.2408C187.533 7.05947 187.995 6.9688 188.485 6.9688C189.129 6.9688 189.668 7.08213 190.103 7.3088C190.538 7.53547 190.865 7.8528 191.082 8.2608C191.309 8.6688 191.422 9.1584 191.422 9.7296V14H190.239L190.13 12.844C190.031 13.0253 189.908 13.1976 189.763 13.3608C189.627 13.524 189.469 13.6645 189.287 13.7824C189.106 13.9003 188.893 13.9909 188.648 14.0544C188.412 14.1269 188.149 14.1632 187.859 14.1632ZM188.118 13.0616C188.408 13.0616 188.671 13.0027 188.906 12.8848C189.142 12.7669 189.342 12.6083 189.505 12.4088C189.677 12.2003 189.804 11.9691 189.886 11.7152C189.976 11.4523 190.026 11.1803 190.035 10.8992V10.8584H188.417C188.036 10.8584 187.723 10.9083 187.478 11.008C187.234 11.0987 187.057 11.2301 186.948 11.4024C186.848 11.5656 186.798 11.756 186.798 11.9736C186.798 12.1912 186.848 12.3816 186.948 12.5448C187.048 12.708 187.197 12.8349 187.397 12.9256C187.596 13.0163 187.837 13.0616 188.118 13.0616ZM195.824 14.1632C195.234 14.1632 194.722 14.068 194.287 13.8776C193.852 13.6872 193.507 13.4197 193.253 13.0752C193.008 12.7216 192.859 12.3181 192.804 11.8648H194.192C194.237 12.0824 194.323 12.2819 194.45 12.4632C194.586 12.6445 194.767 12.7896 194.994 12.8984C195.23 13.0072 195.511 13.0616 195.837 13.0616C196.127 13.0616 196.368 13.0208 196.558 12.9392C196.758 12.8485 196.903 12.7307 196.993 12.5856C197.093 12.4315 197.143 12.2683 197.143 12.096C197.143 11.8421 197.079 11.6472 196.952 11.5112C196.826 11.3752 196.64 11.2709 196.395 11.1984C196.159 11.1168 195.874 11.0443 195.538 10.9808C195.221 10.9264 194.912 10.8539 194.613 10.7632C194.314 10.6635 194.047 10.5411 193.811 10.396C193.584 10.2419 193.403 10.056 193.267 9.8384C193.14 9.61173 193.076 9.3352 193.076 9.0088C193.076 8.61893 193.176 8.26987 193.376 7.9616C193.584 7.64427 193.883 7.39947 194.273 7.2272C194.663 7.05493 195.121 6.9688 195.647 6.9688C196.418 6.9688 197.034 7.15013 197.496 7.5128C197.959 7.8664 198.231 8.37413 198.312 9.036H196.993C196.948 8.72773 196.807 8.492 196.572 8.3288C196.345 8.15653 196.032 8.0704 195.633 8.0704C195.243 8.0704 194.944 8.14747 194.736 8.3016C194.527 8.45573 194.423 8.65973 194.423 8.9136C194.423 9.0768 194.477 9.2264 194.586 9.3624C194.704 9.48933 194.881 9.59813 195.116 9.6888C195.352 9.77947 195.642 9.85653 195.987 9.92C196.467 10.0107 196.898 10.124 197.279 10.26C197.66 10.396 197.963 10.5955 198.19 10.8584C198.417 11.1213 198.526 11.5021 198.516 12.0008C198.526 12.4269 198.417 12.8032 198.19 13.1296C197.972 13.456 197.66 13.7099 197.252 13.8912C196.853 14.0725 196.377 14.1632 195.824 14.1632ZM203.232 14.1632C202.579 14.1632 201.999 14.0136 201.491 13.7144C200.983 13.4152 200.584 12.9981 200.294 12.4632C200.013 11.9283 199.873 11.3027 199.873 10.5864C199.873 9.86107 200.013 9.23093 200.294 8.696C200.584 8.152 200.983 7.7304 201.491 7.4312C201.999 7.12293 202.588 6.9688 203.259 6.9688C203.93 6.9688 204.506 7.1184 204.986 7.4176C205.467 7.7168 205.834 8.11573 206.088 8.6144C206.351 9.104 206.482 9.648 206.482 10.2464C206.482 10.3371 206.482 10.4368 206.482 10.5456C206.482 10.6453 206.478 10.7587 206.469 10.8856H200.879V9.92H205.136C205.109 9.3488 204.918 8.90453 204.565 8.5872C204.211 8.2608 203.767 8.0976 203.232 8.0976C202.869 8.0976 202.534 8.1792 202.225 8.3424C201.917 8.5056 201.668 8.7504 201.477 9.0768C201.296 9.4032 201.205 9.8112 201.205 10.3008V10.6952C201.205 11.2029 201.296 11.6291 201.477 11.9736C201.668 12.3181 201.917 12.5811 202.225 12.7624C202.534 12.9437 202.869 13.0344 203.232 13.0344C203.667 13.0344 204.025 12.9392 204.306 12.7488C204.587 12.5584 204.796 12.3 204.932 11.9736H206.292C206.174 12.3907 205.975 12.7669 205.693 13.1024C205.412 13.4288 205.063 13.6872 204.646 13.8776C204.238 14.068 203.767 14.1632 203.232 14.1632Z" fill="#3A4560"/>
</svg>
